<svg width="974" height="436" viewBox="0 0 974 436" fill="none" xmlns="http://www.w3.org/2000/svg">
<path d="M921.254 60.2016C921.278 60.2839 921.328 60.356 921.398 60.4064C921.467 60.4569 921.551 60.4828 921.637 60.48C921.723 60.4773 921.805 60.446 921.871 60.3912C921.937 60.3364 921.983 60.2612 922.001 60.1774L934.652 6.34632C934.847 5.5222 935.294 4.77985 935.929 4.22268C936.564 3.66551 937.356 3.32125 938.194 3.23788L971.712 0.00898729C972.039 -0.0225452 972.369 0.0292066 972.671 0.159369C972.973 0.28953 973.238 0.493913 973.439 0.75354C973.641 1.01317 973.774 1.31962 973.826 1.64443C973.878 1.96924 973.847 2.30187 973.736 2.61143L940.338 99.6472C939.413 102.311 938.941 105.113 938.941 107.936V156.37C938.94 156.941 938.732 157.493 938.355 157.923C937.979 158.353 937.459 158.631 936.892 158.707L904.965 162.707C904.686 162.745 904.403 162.722 904.134 162.64C903.864 162.558 903.616 162.419 903.403 162.232C903.191 162.045 903.021 161.814 902.904 161.555C902.787 161.297 902.725 161.016 902.724 160.731L902.411 104.201C902.411 103.5 902.289 102.807 902.049 102.153L868.338 12.9005C868.241 12.6481 868.204 12.3765 868.231 12.107C868.257 11.8374 868.346 11.5771 868.491 11.3463C868.635 11.1156 868.831 10.9205 869.064 10.7764C869.297 10.6322 869.56 10.5427 869.832 10.515L904.122 7.18971C904.569 7.14795 905.017 7.2618 905.39 7.51202C905.763 7.76224 906.039 8.13345 906.17 8.56314L921.254 60.2016Z" fill="#020202"/>
<path d="M825.302 15.5269C861.615 13.1172 873.76 38.901 871.422 70.9731C870.33 85.8645 864.402 98.0093 853.639 107.407C853.229 107.759 852.937 108.229 852.803 108.75C852.67 109.272 852.701 109.821 852.892 110.322L873.471 164.803C873.605 165.153 873.656 165.53 873.622 165.904C873.588 166.277 873.47 166.638 873.275 166.96C873.08 167.283 872.814 167.558 872.498 167.764C872.181 167.971 871.822 168.103 871.447 168.153L839.905 172.105C839.159 172.199 838.404 172.031 837.77 171.63C837.137 171.23 836.665 170.622 836.435 169.912C828.018 143.679 823.013 127.856 821.422 122.442C821.053 121.157 820.475 120.113 819.688 119.31C819.334 118.946 818.878 118.695 818.38 118.59C817.883 118.486 817.365 118.533 816.894 118.724C816.423 118.916 816.021 119.244 815.737 119.666C815.453 120.088 815.302 120.585 815.302 121.093V172.539C815.304 173.444 814.977 174.319 814.382 174.998C813.788 175.677 812.967 176.113 812.074 176.225L781.664 180.033C781.437 180.063 781.206 180.045 780.986 179.978C780.766 179.911 780.563 179.797 780.389 179.644C780.216 179.491 780.077 179.303 779.981 179.092C779.885 178.881 779.834 178.651 779.833 178.418V21.3101C779.83 20.7579 780.034 20.2249 780.404 19.8149C780.774 19.405 781.283 19.1473 781.833 19.0933C795.744 17.6957 810.234 16.5068 825.302 15.5269ZM816.675 50.4185C816.043 50.4186 815.436 50.6704 814.989 51.1177C814.542 51.565 814.291 52.1717 814.291 52.8042L814.483 89.1899C814.483 89.8225 814.735 90.4292 815.182 90.8765C815.63 91.3237 816.236 91.5747 816.869 91.5747L821.013 91.5513C822.903 91.543 824.772 91.1231 826.514 90.3169C826.732 90.2162 826.947 90.1097 827.16 89.9976C827.266 89.9413 827.372 89.8838 827.477 89.8247C827.687 89.7068 827.894 89.5836 828.098 89.4546C829.221 88.7454 830.253 87.8704 831.167 86.8521C831.665 86.2966 832.124 85.7022 832.542 85.0747C832.681 84.8654 832.815 84.6525 832.945 84.436C833.01 84.3279 833.073 84.2188 833.135 84.1089C833.26 83.8892 833.38 83.6662 833.495 83.4399C833.782 82.8737 834.038 82.2875 834.261 81.6841C834.351 81.4428 834.434 81.1989 834.512 80.9536C834.591 80.7081 834.663 80.4606 834.73 80.2114C835.132 78.7176 835.335 77.1636 835.327 75.5991L835.278 66.2017C835.257 61.9918 833.722 57.9617 831.011 54.9976C828.3 52.0335 824.635 50.3773 820.821 50.394L816.675 50.4185Z" fill="#020202"/>
<path d="M762.724 86.6111V117.96C762.721 118.468 762.529 118.955 762.186 119.329C761.843 119.703 761.374 119.937 760.869 119.984L732.05 122.804C731.545 122.851 731.076 123.085 730.733 123.459C730.39 123.833 730.198 124.321 730.194 124.828V148.804C730.195 149.094 730.258 149.382 730.379 149.646C730.5 149.911 730.675 150.147 730.894 150.338C731.113 150.53 731.37 150.672 731.648 150.757C731.926 150.841 732.219 150.865 732.508 150.828L766.291 146.587C766.579 146.549 766.872 146.573 767.15 146.658C767.429 146.742 767.686 146.885 767.905 147.076C768.123 147.268 768.299 147.504 768.419 147.768C768.54 148.033 768.603 148.32 768.604 148.611V181.454C768.602 181.95 768.421 182.429 768.093 182.801C767.765 183.173 767.313 183.414 766.821 183.478L697.592 192.177C697.304 192.215 697.011 192.19 696.733 192.106C696.454 192.022 696.197 191.879 695.978 191.687C695.759 191.496 695.584 191.26 695.463 190.995C695.343 190.731 695.28 190.444 695.279 190.153V29.045C695.283 28.5378 695.475 28.05 695.817 27.6761C696.16 27.3021 696.629 27.0687 697.134 27.0209L765.206 20.4427C765.491 20.4158 765.778 20.4487 766.049 20.5395C766.321 20.6303 766.57 20.777 766.781 20.9699C766.992 21.1629 767.16 21.3979 767.275 21.6599C767.39 21.9218 767.449 22.2049 767.447 22.4909V55.0209C767.444 55.5281 767.252 56.0159 766.909 56.3898C766.566 56.7638 766.097 56.9972 765.592 57.045L731.833 60.322C731.328 60.3698 730.859 60.6032 730.516 60.9772C730.173 61.3511 729.981 61.8389 729.978 62.3461V85.2376C729.976 85.5236 730.035 85.8067 730.15 86.0686C730.265 86.3306 730.433 86.5656 730.644 86.7585C730.855 86.9515 731.104 87.0981 731.375 87.1889C731.647 87.2797 731.934 87.3127 732.219 87.2858L760.484 84.5629C760.768 84.536 761.055 84.569 761.327 84.6598C761.598 84.7506 761.847 84.8972 762.058 85.0901C762.269 85.2831 762.438 85.5181 762.552 85.7801C762.667 86.042 762.726 86.3251 762.724 86.6111Z" fill="#020202"/>
<path d="M635.303 148.972L651.038 33.5269C651.132 32.8345 651.457 32.194 651.96 31.7087C652.462 31.2235 653.114 30.9217 653.809 30.8522L686.99 27.6474C687.255 27.6201 687.523 27.6552 687.773 27.75C688.022 27.8448 688.246 27.9965 688.426 28.1932C688.606 28.3899 688.738 28.626 688.811 28.8827C688.884 29.1394 688.895 29.4095 688.845 29.6715L657.809 194.852C657.641 195.753 657.188 196.578 656.517 197.207C655.845 197.835 654.99 198.234 654.074 198.346L615.327 203.213C614.586 203.312 613.834 203.122 613.229 202.682C612.623 202.243 612.21 201.587 612.074 200.852L582.364 40.9245C582.308 40.621 582.315 40.3094 582.383 40.009C582.452 39.7085 582.58 39.4256 582.76 39.1774C582.941 38.9292 583.17 38.721 583.433 38.5656C583.696 38.4103 583.988 38.311 584.291 38.2739L615.954 34.298C616.653 34.2102 617.361 34.3718 617.955 34.7548C618.549 35.1377 618.992 35.7179 619.207 36.3944C620.556 40.6353 620.629 44.7799 621.135 47.9365C626.902 83.1332 631.054 116.627 633.592 148.418C633.608 148.593 633.657 148.765 633.737 148.924C633.801 149.069 633.93 149.229 634.123 149.406C634.222 149.491 634.343 149.549 634.473 149.573C634.602 149.597 634.734 149.586 634.856 149.541C634.977 149.496 635.083 149.42 635.162 149.32C635.241 149.219 635.29 149.099 635.303 148.972Z" fill="#020202"/>
<path d="M476.75 92.9002C476.748 93.1356 476.688 93.3669 476.573 93.5725C476.458 93.7781 476.294 93.9515 476.094 94.0765C475.895 94.2014 475.667 94.274 475.432 94.2874C475.197 94.3008 474.962 94.2547 474.75 94.1532C447.135 81.1653 437.906 100.466 436.557 125.021C435.465 144.539 436.18 159.784 438.702 170.755C443.545 191.864 461.762 188.322 475.376 179.261C475.653 179.074 475.976 178.967 476.31 178.952C476.644 178.937 476.975 179.016 477.267 179.178C477.559 179.34 477.801 179.58 477.965 179.871C478.128 180.163 478.208 180.494 478.195 180.828L477.352 212.972C477.329 213.969 477.057 214.945 476.56 215.808C476.063 216.671 475.358 217.394 474.509 217.912C460.942 226.177 438.581 230.827 424.702 220.972C402.629 205.309 401.352 168.153 401.208 143.213C401.039 116.731 403.666 89.7436 417.208 67.6955C429.473 47.7678 455.208 44.5148 475.665 52.4666C475.985 52.5959 476.26 52.8163 476.453 53.0997C476.646 53.383 476.749 53.7163 476.75 54.057V92.9002Z" fill="#020202"/>
<path d="M360.75 128.274L387.955 125.671C388.191 125.648 388.43 125.674 388.656 125.748C388.881 125.822 389.089 125.942 389.266 126.1C389.443 126.259 389.585 126.453 389.683 126.669C389.781 126.886 389.832 127.12 389.834 127.358V161.767C389.83 162.189 389.671 162.595 389.386 162.906C389.102 163.217 388.712 163.413 388.292 163.454L360.678 166.129C360.262 166.17 359.876 166.362 359.592 166.668C359.308 166.974 359.145 167.374 359.136 167.792L358.413 195.237C358.404 195.485 358.449 195.733 358.545 195.962C358.641 196.19 358.786 196.396 358.969 196.563C359.153 196.73 359.37 196.856 359.607 196.931C359.844 197.006 360.094 197.028 360.34 196.996L395.304 192.587C395.55 192.555 395.801 192.577 396.037 192.652C396.274 192.727 396.492 192.852 396.675 193.02C396.859 193.187 397.004 193.392 397.1 193.621C397.196 193.85 397.241 194.097 397.232 194.346L396.292 230.032C396.283 230.446 396.124 230.843 395.845 231.149C395.566 231.454 395.185 231.648 394.774 231.695L326.967 240.201C326.727 240.232 326.483 240.211 326.251 240.14C326.02 240.07 325.806 239.951 325.624 239.791C325.441 239.632 325.295 239.436 325.194 239.216C325.094 238.995 325.041 238.756 325.039 238.514V64.1052C325.043 63.6834 325.203 63.2779 325.487 62.9666C325.772 62.6552 326.162 62.46 326.581 62.4184L392.244 56.0811C392.48 56.0577 392.719 56.0837 392.945 56.1576C393.171 56.2315 393.379 56.3516 393.555 56.5103C393.732 56.669 393.874 56.8628 393.972 57.0793C394.07 57.2958 394.121 57.5303 394.123 57.7679V94.587C394.12 95.0088 393.96 95.4143 393.675 95.7256C393.391 96.037 393.001 96.2322 392.581 96.2738L360.413 99.3821C359.993 99.4237 359.603 99.6189 359.319 99.9303C359.034 100.242 358.874 100.647 358.871 101.069V126.587C358.873 126.824 358.924 127.059 359.022 127.275C359.12 127.492 359.262 127.686 359.439 127.844C359.615 128.003 359.823 128.123 360.049 128.197C360.275 128.271 360.514 128.297 360.75 128.274Z" fill="#020202"/>
<path d="M482.532 127.358C483.544 88.3704 490.268 38.2016 542.051 40.1052C582.773 41.5995 583.809 100.732 583.086 128.78C582.05 167.768 575.327 217.935 523.545 216.032C482.822 214.538 481.785 155.406 482.532 127.358ZM533.906 80.1531C532.863 80.132 531.889 80.2541 530.981 80.5056C530.754 80.5684 530.531 80.6398 530.313 80.7185C530.094 80.7973 529.879 80.8841 529.668 80.9783C529.457 81.0724 529.25 81.1738 529.047 81.283C528.235 81.7195 527.484 82.2739 526.791 82.9314C526.531 83.1779 526.279 83.4389 526.035 83.7136C525.71 84.08 525.399 84.4713 525.101 84.8845C524.951 85.0913 524.805 85.3034 524.662 85.5212C524.591 85.6299 524.521 85.74 524.451 85.8513C524.312 86.0746 524.175 86.3032 524.042 86.5369C523.909 86.7702 523.779 87.0085 523.653 87.2517C523.399 87.7383 523.157 88.244 522.927 88.7673C522.582 89.5525 522.264 90.3774 521.969 91.2351C521.772 91.8067 521.586 92.3928 521.41 92.9919C520.795 95.0899 520.305 97.3458 519.912 99.6804C519.8 100.347 519.696 101.021 519.599 101.699C519.018 105.767 518.705 110 518.53 114.001C518.472 115.335 518.43 116.643 518.398 117.91C518.382 118.543 518.368 119.167 518.357 119.778C518.334 121.001 518.319 122.176 518.308 123.289C518.285 125.513 518.276 127.487 518.243 129.093C518.213 130.698 518.144 132.671 518.079 134.894C518.047 136.006 518.015 137.18 517.99 138.403C517.89 143.293 517.892 148.955 518.338 154.458C518.561 157.21 518.896 159.922 519.384 162.478C519.506 163.117 519.638 163.746 519.779 164.364C519.921 164.982 520.073 165.588 520.237 166.181C520.726 167.96 521.315 169.617 522.02 171.106C522.137 171.354 522.257 171.598 522.381 171.837C522.567 172.194 522.761 172.541 522.962 172.876C523.096 173.099 523.234 173.317 523.375 173.529C523.446 173.636 523.517 173.741 523.59 173.844C523.735 174.051 523.883 174.253 524.035 174.448C524.187 174.643 524.343 174.833 524.502 175.016C524.662 175.2 524.824 175.377 524.991 175.549C525.075 175.634 525.16 175.718 525.245 175.801C525.758 176.295 526.305 176.731 526.889 177.104C528.35 178.037 530.042 178.571 532.002 178.611C548.701 178.948 547.424 142.514 547.665 129.671C547.808 122.045 548.826 106.129 546.129 94.3894C545.632 92.2268 545.009 90.2061 544.232 88.405C544.12 88.1476 544.006 87.8945 543.889 87.6462C543.649 87.1406 543.396 86.6548 543.129 86.1902C542.741 85.515 542.323 84.8849 541.873 84.3064C541.721 84.1113 541.566 83.9222 541.406 83.739C541.008 83.2803 540.586 82.8594 540.139 82.4802C539.96 82.3286 539.778 82.1837 539.591 82.0457C538.285 81.0792 536.781 80.4496 535.05 80.2341C534.803 80.2033 534.551 80.1804 534.294 80.1667C534.166 80.1599 534.037 80.1555 533.906 80.1531Z" fill="#020202"/>
<path d="M271.762 67.5264C311.208 66.2975 318.533 107.43 313.063 138.346C310.895 150.506 305.657 160.723 297.352 168.996C296.908 169.433 296.591 169.982 296.434 170.584C296.277 171.186 296.286 171.82 296.461 172.418L315.883 238.827C315.951 239.059 315.968 239.303 315.932 239.542C315.897 239.781 315.809 240.01 315.676 240.212C315.543 240.414 315.367 240.584 315.162 240.711C314.956 240.838 314.725 240.92 314.485 240.948L283.835 244.803C283.055 244.901 282.266 244.706 281.621 244.257C280.976 243.807 280.519 243.135 280.341 242.369C276.871 228.024 271.899 208.899 265.426 184.996C265.072 183.695 264.662 182.803 264.196 182.321C263.927 182.035 263.597 181.813 263.231 181.67C262.865 181.527 262.472 181.467 262.08 181.494C261.688 181.522 261.306 181.636 260.964 181.829C260.621 182.022 260.326 182.289 260.099 182.61C259.81 183.028 259.658 183.76 259.642 184.804C259.578 212.064 259.561 232.193 259.593 245.188C259.598 245.695 259.416 246.186 259.084 246.567C258.751 246.949 258.289 247.196 257.787 247.261L227.811 251.021C227.493 251.062 227.168 251.033 226.861 250.938C226.554 250.843 226.271 250.683 226.029 250.469C225.788 250.255 225.594 249.991 225.461 249.695C225.328 249.4 225.258 249.079 225.257 248.755V72.5869C225.258 72.2325 225.387 71.8907 225.617 71.625C225.847 71.3596 226.164 71.1881 226.509 71.1416C240.951 69.2139 256.036 68.0083 271.762 67.5264ZM260.726 105.189C260.483 105.193 260.242 105.244 260.018 105.34C259.794 105.436 259.592 105.575 259.422 105.75C259.252 105.924 259.117 106.13 259.027 106.356C258.937 106.583 258.892 106.825 258.895 107.068L259.184 150.057C259.187 150.3 259.239 150.541 259.335 150.765C259.431 150.989 259.57 151.191 259.745 151.361C259.919 151.531 260.126 151.666 260.352 151.756C260.578 151.846 260.82 151.891 261.063 151.888L265.208 151.864C268.88 151.835 272.39 150.191 274.966 147.295C276.495 145.575 277.62 143.497 278.276 141.241C278.414 140.766 278.532 140.284 278.628 139.795C278.676 139.55 278.718 139.304 278.756 139.057C278.793 138.809 278.825 138.56 278.851 138.311C278.917 137.686 278.948 137.054 278.943 136.418L278.846 120.418C278.843 119.914 278.817 119.411 278.769 118.911C278.745 118.661 278.715 118.412 278.68 118.164C278.505 116.924 278.193 115.709 277.75 114.548C277.572 114.083 277.375 113.629 277.158 113.188C277.104 113.077 277.048 112.968 276.991 112.859C276.878 112.642 276.76 112.427 276.637 112.216C276.453 111.899 276.259 111.59 276.054 111.289C275.918 111.088 275.777 110.891 275.632 110.698C275.559 110.602 275.485 110.507 275.41 110.412C275.26 110.223 275.107 110.037 274.949 109.855C274.87 109.765 274.79 109.675 274.709 109.587C273.654 108.436 272.442 107.481 271.119 106.757C270.915 106.645 270.709 106.539 270.501 106.438C270.396 106.388 270.291 106.339 270.185 106.292C269.869 106.15 269.548 106.021 269.224 105.905C269.008 105.828 268.791 105.757 268.572 105.691C267.368 105.333 266.123 105.155 264.871 105.165L260.726 105.189Z" fill="#020202"/>
<path d="M202.148 200.707H178.63C178.228 200.707 177.842 200.867 177.557 201.152C177.272 201.436 177.112 201.822 177.112 202.225V216.876C177.112 217.278 177.272 217.664 177.557 217.949C177.842 218.234 178.228 218.394 178.63 218.394H198.413C198.816 218.394 199.202 218.554 199.487 218.838C199.771 219.123 199.931 219.509 199.931 219.912V240.61C199.931 241.013 199.771 241.399 199.487 241.684C199.202 241.969 198.816 242.129 198.413 242.129H178.919C178.517 242.129 178.131 242.288 177.846 242.573C177.561 242.858 177.401 243.244 177.401 243.647V258.779C177.401 259.182 177.561 259.568 177.846 259.853C178.131 260.137 178.517 260.297 178.919 260.297H203.835C204.041 260.297 204.244 260.338 204.433 260.419C204.622 260.5 204.793 260.618 204.935 260.767C205.077 260.916 205.187 261.092 205.259 261.284C205.331 261.477 205.363 261.682 205.353 261.887L204.245 283.285C204.226 283.675 204.058 284.043 203.775 284.312C203.493 284.581 203.117 284.731 202.727 284.731H153.98C153.577 284.731 153.191 284.571 152.906 284.286C152.622 284.002 152.462 283.615 152.462 283.213V177.623C152.462 177.22 152.622 176.834 152.906 176.549C153.191 176.265 153.577 176.105 153.98 176.105H202.148C202.551 176.105 202.937 176.265 203.222 176.549C203.506 176.834 203.666 177.22 203.666 177.623V199.189C203.666 199.592 203.506 199.978 203.222 200.262C202.937 200.547 202.551 200.707 202.148 200.707Z" fill="#020202"/>
<path d="M106.606 242.201C102.382 242.217 99.5463 242.257 98.1005 242.321C97.8066 242.34 97.5309 242.467 97.3294 242.677C97.1279 242.888 97.0158 243.165 97.0161 243.454V283.598C97.0161 283.962 96.8714 284.312 96.6138 284.569C96.3562 284.827 96.0069 284.972 95.6426 284.972H74.1728C73.6807 284.972 73.2088 284.776 72.8608 284.428C72.5129 284.08 72.3174 283.608 72.3174 283.116V178.129C72.3174 177.784 72.4571 177.453 72.7056 177.209C72.9542 176.965 73.2912 176.828 73.6427 176.828H95.4016C95.8298 176.828 96.2405 176.998 96.5433 177.3C96.846 177.603 97.0161 178.014 97.0161 178.442V213.309C97.0161 213.533 97.0605 213.754 97.1468 213.96C97.2331 214.167 97.3595 214.354 97.5187 214.511C97.6778 214.668 97.8666 214.791 98.0741 214.875C98.2815 214.958 98.5034 214.999 98.7269 214.996C101.908 214.932 104.51 214.892 106.534 214.876C108.558 214.876 111.153 214.9 114.317 214.948C114.541 214.951 114.763 214.91 114.97 214.826C115.178 214.743 115.366 214.619 115.526 214.462C115.685 214.305 115.811 214.118 115.897 213.912C115.984 213.706 116.028 213.485 116.028 213.261L115.835 178.394C115.832 178.182 115.871 177.971 115.949 177.774C116.027 177.577 116.143 177.397 116.291 177.245C116.439 177.093 116.615 176.971 116.81 176.887C117.004 176.803 117.214 176.758 117.426 176.755L139.185 176.635C139.361 176.632 139.536 176.663 139.699 176.727C139.863 176.791 140.012 176.886 140.137 177.007C140.263 177.128 140.363 177.273 140.431 177.432C140.499 177.592 140.534 177.763 140.534 177.936L141.112 282.924C141.112 283.416 140.917 283.888 140.569 284.235C140.221 284.583 139.749 284.779 139.257 284.779L117.787 284.899C117.427 284.899 117.081 284.758 116.824 284.506C116.567 284.253 116.42 283.91 116.414 283.55L116.197 243.406C116.197 243.113 116.081 242.832 115.875 242.621C115.668 242.41 115.386 242.286 115.088 242.273C113.643 242.209 110.815 242.185 106.606 242.201Z" fill="#020202"/>
<path d="M32.9922 177.069C45.6026 177.069 55.8676 177.125 63.7873 177.237C64.0753 177.243 64.3502 177.359 64.5561 177.56C64.7621 177.761 64.8835 178.034 64.8957 178.322L65.9559 199.791C65.969 200.018 65.9358 200.244 65.8582 200.457C65.7805 200.67 65.6601 200.865 65.5044 201.03C65.3487 201.195 65.1609 201.326 64.9527 201.415C64.7444 201.505 64.52 201.551 64.2933 201.55H46.9921C46.5767 201.55 46.1784 201.715 45.8847 202.009C45.591 202.303 45.4259 202.701 45.4259 203.117V283.574C45.4264 283.92 45.2942 284.253 45.0566 284.504C44.819 284.755 44.494 284.905 44.1488 284.924C40.7753 285.052 37.0404 285.116 32.944 285.116C28.8316 285.1 25.0967 285.036 21.7393 284.924C21.3856 284.911 21.051 284.76 20.8076 284.503C20.5643 284.246 20.4315 283.904 20.4381 283.55L20.5345 203.093C20.5345 202.677 20.3694 202.279 20.0757 201.985C19.7819 201.691 19.3835 201.526 18.9681 201.526H1.66702C1.43816 201.527 1.21166 201.48 1.00167 201.389C0.79167 201.298 0.602693 201.165 0.446617 200.998C0.290542 200.83 0.170698 200.632 0.0946004 200.417C0.018503 200.201 -0.0122132 199.972 0.00437171 199.743L1.08873 178.273C1.10117 177.982 1.22594 177.706 1.437 177.504C1.64806 177.302 1.92906 177.189 2.22126 177.189C10.1248 177.093 20.3818 177.053 32.9922 177.069Z" fill="#020202"/>
<path d="M969.278 429.574H885.423C884.873 429.574 884.346 429.355 883.957 428.967C883.569 428.578 883.35 428.051 883.35 427.501V188.057C883.352 187.554 883.536 187.069 883.869 186.693C884.201 186.316 884.659 186.073 885.158 186.008L963.832 176.129C964.116 176.092 964.404 176.114 964.678 176.194C964.953 176.274 965.208 176.41 965.428 176.593C965.647 176.777 965.827 177.003 965.954 177.259C966.082 177.515 966.155 177.795 966.169 178.081L968.796 231.334C968.823 231.868 968.642 232.392 968.292 232.796C967.942 233.2 967.449 233.453 966.916 233.502L926.483 237.406C925.967 237.454 925.488 237.693 925.14 238.077C924.793 238.46 924.601 238.96 924.603 239.478V277.044C924.606 277.323 924.665 277.598 924.777 277.853C924.888 278.108 925.05 278.338 925.253 278.529C925.455 278.72 925.694 278.869 925.955 278.965C926.216 279.062 926.494 279.105 926.772 279.092L959.928 277.454C960.206 277.441 960.484 277.484 960.745 277.581C961.006 277.678 961.245 277.826 961.448 278.017C961.65 278.208 961.812 278.438 961.923 278.694C962.035 278.949 962.094 279.224 962.097 279.502V328.634C962.098 329.168 961.892 329.681 961.524 330.067C961.156 330.453 960.654 330.682 960.121 330.707L926.724 332.345C926.191 332.37 925.688 332.599 925.32 332.985C924.952 333.371 924.747 333.884 924.748 334.417V371.02C924.748 371.569 924.966 372.096 925.355 372.485C925.743 372.874 926.27 373.092 926.82 373.092H970.651C970.927 373.092 971.201 373.147 971.456 373.254C971.71 373.361 971.941 373.518 972.134 373.716C972.327 373.914 972.478 374.148 972.58 374.405C972.681 374.662 972.73 374.936 972.723 375.212L971.35 427.55C971.337 428.091 971.113 428.606 970.726 428.984C970.339 429.362 969.819 429.574 969.278 429.574Z" fill="#020202"/>
<path d="M790.483 316.442C790.453 316.364 790.397 316.298 790.324 316.257C790.252 316.216 790.167 316.201 790.084 316.215C790.002 316.229 789.927 316.272 789.872 316.335C789.818 316.398 789.787 316.479 789.784 316.562V427.598C789.784 428.116 789.579 428.612 789.213 428.978C788.847 429.344 788.35 429.55 787.833 429.55H752.821C752.277 429.55 751.757 429.334 751.372 428.95C750.988 428.566 750.773 428.045 750.773 427.502V207.816C750.773 207.023 751.064 206.258 751.592 205.664C752.12 205.069 752.848 204.686 753.64 204.587L790.772 199.912C791.243 199.856 791.717 199.956 792.123 200.196C792.528 200.435 792.841 200.802 793.013 201.237C800.098 219.213 805.206 240.852 811.11 257.285C814.371 266.394 818.796 280.08 824.387 298.345C824.467 298.635 824.628 298.803 824.869 298.851C824.928 298.862 824.989 298.86 825.048 298.844C825.106 298.828 825.16 298.8 825.206 298.76C825.252 298.721 825.289 298.672 825.314 298.617C825.339 298.562 825.352 298.502 825.351 298.442V197.237C825.351 196.514 825.616 195.816 826.095 195.275C826.575 194.733 827.235 194.386 827.953 194.298L862.483 189.96C862.835 189.916 863.193 189.947 863.533 190.051C863.872 190.156 864.185 190.331 864.452 190.566C864.719 190.8 864.932 191.089 865.079 191.413C865.225 191.736 865.302 192.087 865.302 192.442V428.2C865.302 428.558 865.163 428.901 864.914 429.154C864.665 429.408 864.328 429.55 863.977 429.55H829.11C828.523 429.55 827.95 429.362 827.474 429.011C826.998 428.66 826.642 428.165 826.459 427.598L790.483 316.442Z" fill="#020202"/>
<path d="M730.676 429.718H694.917C694.291 429.718 693.69 429.47 693.248 429.027C692.805 428.584 692.556 427.983 692.556 427.357V215.406C692.558 214.831 692.769 214.276 693.151 213.846C693.532 213.415 694.058 213.139 694.628 213.069L730.387 208.587C730.719 208.546 731.055 208.576 731.374 208.674C731.693 208.773 731.988 208.938 732.238 209.159C732.489 209.38 732.69 209.652 732.827 209.956C732.965 210.26 733.037 210.59 733.038 210.924V427.357C733.038 427.983 732.789 428.584 732.346 429.027C731.903 429.47 731.303 429.718 730.676 429.718Z" fill="#020202"/>
<path d="M600.942 353.188V427.525C600.942 428.139 600.698 428.727 600.264 429.161C599.831 429.595 599.242 429.839 598.629 429.839H562.219C561.606 429.839 561.017 429.595 560.584 429.161C560.15 428.727 559.906 428.139 559.906 427.525V233.743C559.902 233.177 560.105 232.628 560.478 232.202C560.851 231.775 561.368 231.501 561.93 231.43L598.532 226.852C598.858 226.811 599.188 226.839 599.501 226.935C599.814 227.032 600.103 227.193 600.349 227.41C600.595 227.626 600.793 227.892 600.928 228.191C601.063 228.489 601.134 228.813 601.135 229.141V295.044C601.133 295.367 601.2 295.687 601.329 295.982C601.459 296.278 601.649 296.544 601.887 296.761C602.125 296.979 602.407 297.145 602.713 297.248C603.019 297.35 603.343 297.388 603.665 297.357L630.436 294.755C631.007 294.701 631.538 294.437 631.925 294.014C632.312 293.591 632.529 293.039 632.532 292.466V223.454C632.528 222.887 632.731 222.339 633.104 221.913C633.478 221.486 633.994 221.211 634.556 221.141L671.665 216.514C671.99 216.473 672.32 216.502 672.633 216.598C672.946 216.694 673.236 216.856 673.482 217.072C673.728 217.289 673.925 217.555 674.06 217.853C674.196 218.152 674.266 218.476 674.267 218.803V427.405C674.267 428.018 674.023 428.607 673.589 429.041C673.156 429.475 672.567 429.718 671.954 429.718H634.749C634.136 429.718 633.547 429.475 633.113 429.041C632.68 428.607 632.436 428.018 632.436 427.405V350.61C632.437 350.287 632.371 349.968 632.241 349.672C632.112 349.376 631.922 349.111 631.684 348.893C631.445 348.675 631.164 348.509 630.858 348.407C630.551 348.304 630.227 348.267 629.906 348.297L603.038 350.899C602.467 350.953 601.937 351.217 601.549 351.64C601.162 352.063 600.945 352.615 600.942 353.188Z" fill="#020202"/>
<path d="M545.52 381.478C545.676 381.399 545.849 381.362 546.023 381.369C546.197 381.377 546.366 381.429 546.513 381.521C546.661 381.613 546.783 381.742 546.866 381.895C546.95 382.047 546.992 382.219 546.99 382.393C547.006 398.217 546.998 410.682 546.966 419.791C546.95 423.196 545.753 425.59 543.376 426.972C532.179 433.413 520.356 436 507.906 434.731C481.617 432.08 469.665 406.61 465.159 383.478C457.473 344.08 457.81 296.635 478.219 260.779C491.328 237.743 520.773 231.093 544.918 239.575C545.341 239.724 545.708 240.002 545.967 240.369C546.226 240.736 546.364 241.174 546.364 241.623V285.189C546.362 285.516 546.278 285.836 546.119 286.122C545.961 286.408 545.734 286.649 545.458 286.824C545.182 286.999 544.867 287.102 544.541 287.124C544.215 287.146 543.889 287.085 543.593 286.948C520.725 276.249 505.255 286.611 502.147 310.562C500.46 323.751 499.946 336.651 500.605 349.261C501.617 368.924 506.026 397.478 534.46 386.538C537.303 385.446 540.99 383.759 545.52 381.478Z" fill="#020202"/>
<path d="M310.485 349.092C310.379 348.966 310.239 348.873 310.081 348.823C309.923 348.774 309.755 348.77 309.596 348.813C309.436 348.857 309.292 348.944 309.181 349.066C309.07 349.188 308.995 349.339 308.967 349.502L294.027 429.502C293.96 429.861 293.769 430.185 293.487 430.419C293.205 430.652 292.851 430.779 292.485 430.779H273.039C272.514 430.781 272.004 430.596 271.599 430.257C271.193 429.918 270.919 429.446 270.823 428.923L256.22 350.297C256.209 350.229 256.173 350.167 256.12 350.123C256.067 350.079 256 350.055 255.931 350.056L255.184 350.032C255.106 350.029 255.028 350.041 254.955 350.069C254.882 350.096 254.816 350.139 254.76 350.193C254.703 350.247 254.658 350.311 254.628 350.383C254.597 350.455 254.582 350.532 254.582 350.61L252.509 428.851C252.497 429.348 252.288 429.819 251.928 430.166C251.568 430.513 251.085 430.707 250.582 430.706H219.907C219.668 430.707 219.431 430.658 219.211 430.564C218.991 430.47 218.793 430.331 218.628 430.158C218.463 429.984 218.336 429.778 218.253 429.554C218.171 429.329 218.135 429.09 218.148 428.851L225.642 281.02C225.682 280.245 225.993 279.508 226.522 278.94C227.051 278.371 227.763 278.007 228.534 277.912L265.184 273.285C265.862 273.2 266.546 273.377 267.097 273.781C267.648 274.184 268.024 274.782 268.148 275.454L281.811 348.972C281.842 349.15 281.936 349.311 282.075 349.427C282.213 349.543 282.389 349.607 282.57 349.607C282.751 349.607 282.926 349.543 283.064 349.427C283.203 349.311 283.297 349.15 283.329 348.972L297.618 272.9C297.785 271.999 298.235 271.174 298.902 270.546C299.569 269.918 300.419 269.518 301.329 269.406L336.726 264.948C337.117 264.898 337.514 264.929 337.891 265.04C338.269 265.151 338.62 265.339 338.921 265.593C339.223 265.847 339.468 266.16 339.642 266.514C339.816 266.867 339.914 267.253 339.931 267.647L347.907 428.393C347.92 428.651 347.88 428.909 347.79 429.151C347.701 429.393 347.562 429.615 347.384 429.802C347.206 429.989 346.992 430.138 346.754 430.24C346.517 430.341 346.261 430.393 346.003 430.393H314.847C314.546 430.393 314.256 430.276 314.036 430.066C313.817 429.855 313.684 429.567 313.666 429.261C311.947 395.542 310.951 369.124 310.678 350.008C310.678 349.51 310.614 349.205 310.485 349.092Z" fill="#020202"/>
<path d="M430.243 252.562C430.66 252.506 431.083 252.612 431.424 252.859C431.765 253.106 431.999 253.474 432.075 253.887L464.532 428.561C464.575 428.797 464.565 429.04 464.503 429.272C464.441 429.504 464.33 429.719 464.176 429.903C464.022 430.087 463.83 430.234 463.612 430.336C463.395 430.437 463.158 430.489 462.918 430.489H426.798C426.399 430.486 426.014 430.338 425.717 430.072C425.42 429.806 425.231 429.44 425.184 429.044L421.665 401.164C421.618 400.768 421.428 400.403 421.131 400.136C420.834 399.87 420.45 399.722 420.051 399.719H394.027C393.631 399.721 393.25 399.866 392.953 400.128C392.657 400.389 392.465 400.749 392.412 401.14L388.581 429.164C388.529 429.556 388.337 429.916 388.04 430.177C387.744 430.439 387.362 430.583 386.967 430.586H352.822C352.58 430.587 352.341 430.534 352.121 430.431C351.902 430.329 351.708 430.178 351.554 429.992C351.399 429.805 351.288 429.586 351.229 429.351C351.169 429.117 351.162 428.871 351.208 428.634L382.943 259.671C383.006 259.331 383.175 259.019 383.426 258.781C383.677 258.543 383.997 258.391 384.34 258.345L430.243 252.562ZM406.789 301.299C406.75 301.303 406.712 301.308 406.675 301.314C406.638 301.321 406.603 301.329 406.569 301.338C406.467 301.364 406.376 301.4 406.296 301.446C406.243 301.477 406.195 301.512 406.152 301.552C406 301.69 405.91 301.882 405.882 302.129C403.28 324.153 400.919 343.832 398.798 361.165C398.778 361.332 398.793 361.502 398.843 361.664C398.893 361.825 398.976 361.975 399.087 362.102C399.198 362.23 399.336 362.332 399.489 362.403C399.605 362.456 399.727 362.491 399.853 362.506C399.894 362.511 399.937 362.513 399.979 362.513C400.87 362.521 401.917 362.526 403.117 362.526C404.318 362.526 405.674 362.521 407.184 362.513C410.192 362.513 412.586 362.497 414.367 362.466C414.374 362.465 414.382 362.466 414.389 362.466C414.391 362.466 414.393 362.465 414.396 362.465C414.562 362.461 414.727 362.425 414.878 362.355C415.032 362.284 415.168 362.182 415.279 362.054C415.391 361.927 415.475 361.778 415.525 361.616C415.574 361.454 415.59 361.284 415.57 361.116C413.353 343.799 410.894 324.136 408.195 302.129C408.183 302.023 408.161 301.927 408.126 301.842C408.115 301.813 408.101 301.786 408.087 301.76C408.059 301.707 408.026 301.658 407.987 301.614C407.968 301.592 407.948 301.571 407.927 301.552C407.884 301.512 407.836 301.477 407.782 301.446C407.649 301.369 407.485 301.321 407.289 301.299C407.211 301.29 407.128 301.285 407.039 301.285C406.951 301.285 406.868 301.29 406.789 301.299Z" fill="#020202"/>
</svg>
